<?xml version="1.0" encoding="utf-8"?>
<!-- Generator: Adobe Illustrator 25.2.1, SVG Export Plug-In . SVG Version: 6.00 Build 0)  -->
<svg version="1.1" id="Layer_1" xmlns="http://www.w3.org/2000/svg" xmlns:xlink="http://www.w3.org/1999/xlink" x="0px" y="0px"
	 viewBox="0 0 512 512" style="enable-background:new 0 0 512 512;" xml:space="preserve">
<style type="text/css">
	.st0{fill:url(#SVGID_1_);}
	.st1{fill:#231F20;fill-opacity:0.05;}
	.st2{fill-rule:evenodd;clip-rule:evenodd;fill:#1975D1;}
	.st3{fill:url(#SVGID_2_);}
	.st4{fill:url(#SVGID_3_);stroke:#FFFFFF;}
</style>
<linearGradient id="SVGID_1_" gradientUnits="userSpaceOnUse" x1="131.1577" y1="107.7854" x2="391.872" y2="417.3092">
	<stop  offset="0" style="stop-color:#D8FFB4"/>
	<stop  offset="1" style="stop-color:#94F7FF"/>
</linearGradient>
<!--rect class="st0" width="512" height="512"/-->
<polygon class="st1" points="392.14,165.8 526.44,300.1 526.44,518.33 398.69,518.33 370.71,518.33 361.19,518.33 210.59,367.73 
	206.04,361.41 206.04,317.44 211.19,302.35 208.29,291.55 211.79,282.62 124.93,195.76 170.88,147.57 211.89,187.21 217.63,177.97 
	243.15,203.49 246.83,183.79 244.68,183.79 231.91,171.02 244.68,168.26 249.52,147.57 271.48,169.52 276.91,165.8 270.26,159.15 
	276.91,147.57 295.35,166.01 296.84,165.8 301.9,170.86 317.59,167.04 331.02,170.83 357.2,197.01 348.89,165.8 376.14,193.06 "/>
<g>
	<g>
		<path class="st2" d="M160.67,172.44h20.41V177h-20.41V172.44z M160.67,199.69h20.41v4.54h-20.41V199.69z M153.87,190.6h34.01v4.52
			h-34.01L153.87,190.6z M153.87,181.52h34.01v4.54h-34.01L153.87,181.52z M133.46,187.22l37.43,36.33l37.4-36.33l-37.4-36.35
			L133.46,187.22z M170.72,144.05l40.97,39.45l5.94-5.54l4.27,3.86l-51.02,49.65l-41.51-40.3l-5.49,5.3l-4.01-3.89L170.72,144.05z
			 M362.73,215.8l-21.23-49.99h7.38l17.35,41.2l18.53-41.2h7.37l-31.6,69.84h-7.28L362.73,215.8z M289.87,165.8h6.97v6.62h0.2
			c0.66-0.91,1.39-1.76,2.19-2.55c1.04-1.02,2.21-1.9,3.49-2.6c1.53-0.84,3.15-1.51,4.83-1.99c2.03-0.56,4.13-0.83,6.23-0.8
			c3.14-0.03,6.27,0.44,9.26,1.39c2.99,1.04,5.71,2.73,7.97,4.96c2.17,2.05,3.85,4.55,4.93,7.33c1.24,2.99,1.86,6.63,1.86,10.92
			v28.45h-6.97v-28.47c0-3.41-0.48-6.28-1.45-8.6c-0.81-2.11-2.08-4.02-3.72-5.58c-1.76-1.67-3.9-2.88-6.23-3.54
			c-3.66-1.2-7.6-1.2-11.25,0c-4.52,1.27-8.18,4.6-9.86,8.98c-1.02,2.63-1.52,5.44-1.45,8.27v28.92h-6.97L289.87,165.8z
			 M269.94,165.8h6.97v51.69h-6.97V165.8z M269.94,147.57h6.97v11.91h-6.97V147.57z M242.55,171.74h-11.46v-5.94h11.46v-18.24h6.97
			v18.24h13.05v5.96h-13.05v45.74h-6.97V171.74z"/>
	</g>
	<g>
		
			<linearGradient id="SVGID_2_" gradientUnits="userSpaceOnUse" x1="202.9077" y1="241.1766" x2="319.092" y2="148.9495" gradientTransform="matrix(1 0 0 -1 0 514)">
			<stop  offset="0" style="stop-color:#9013FE"/>
			<stop  offset="1" style="stop-color:#6610F2"/>
		</linearGradient>
		<path class="st3" d="M204.19,275.84c-0.25-7.2,5.36-13.85,12.95-13.85h77.74c7.59,0,13.2,6.64,12.95,13.85
			c-0.24,6.92,0.07,15.88,2.33,23.19c2.26,7.33,6.08,11.97,12.33,12.56v6.75c-6.25,0.6-10.07,5.23-12.33,12.56
			c-2.26,7.31-2.57,16.27-2.33,23.19c0.25,7.2-5.36,13.85-12.95,13.85h-77.74c-7.59,0-13.2-6.64-12.95-13.85
			c0.24-6.92-0.07-15.88-2.33-23.19c-2.26-7.33-6.09-11.97-12.34-12.56v-6.75c6.25-0.6,10.08-5.23,12.34-12.56
			C204.12,291.73,204.43,282.76,204.19,275.84z"/>
		
			<linearGradient id="SVGID_3_" gradientUnits="userSpaceOnUse" x1="238.6391" y1="222.8366" x2="264.6094" y2="178.9152" gradientTransform="matrix(1 0 0 -1 0 514)">
			<stop  offset="0" style="stop-color:#FFFFFF"/>
			<stop  offset="1" style="stop-color:#F1E5FC"/>
		</linearGradient>
		<path class="st4" d="M258.88,343.14c12.28,0,19.68-6.01,19.68-15.93c0-7.5-5.28-12.93-13.12-13.79v-0.31
			c5.76-0.94,10.28-6.29,10.28-12.26c0-8.51-6.72-14.06-16.96-14.06h-23.04v56.35H258.88z M244.68,293.93h11.92
			c6.48,0,10.16,2.89,10.16,8.12c0,5.58-4.28,8.71-12.04,8.71h-10.04C244.68,310.76,244.68,293.93,244.68,293.93z M244.68,335.99
			v-18.55h11.84c8.48,0,12.88,3.12,12.88,9.22c0,6.09-4.28,9.33-12.36,9.33H244.68z"/>
	</g>
</g>
</svg>
