<?xml version="1.0" encoding="utf-8"?>
<!-- Generator: Adobe Illustrator 25.2.1, SVG Export Plug-In . SVG Version: 6.00 Build 0)  -->
<svg version="1.1" id="Layer_1" xmlns="http://www.w3.org/2000/svg" xmlns:xlink="http://www.w3.org/1999/xlink" x="0px" y="0px"
	 viewBox="0 0 512 512" style="enable-background:new 0 0 512 512;" xml:space="preserve">
<style type="text/css">
	.st0{fill:url(#SVGID_1_);}
	.st1{opacity:0.05;}
</style>
<linearGradient id="SVGID_1_" gradientUnits="userSpaceOnUse" x1="130.991" y1="107.6187" x2="391.7053" y2="417.1425">
	<stop  offset="0" style="stop-color:#FDD4FF"/>
	<stop  offset="1" style="stop-color:#FBFFBF"/>
</linearGradient>
<!--rect x="-0.17" y="-0.17" class="st0" width="512" height="512"/-->
<g>
	<g>
		<path d="M172.33,276.29v1.63h-38.95v-58.18H172v1.63h-36.99v25.42h34.79v1.63h-34.79v27.87H172.33z"/>
		<path d="M209.38,236.04l-15.32,20.21l16.79,21.68h-2.04L193,257.47l-15.73,20.45h-1.96l16.7-21.68l-15.24-20.21h2.12l14.1,18.99
			l14.42-18.99H209.38z"/>
		<path d="M215.33,292.26v-56.22h1.63v11.73h0.16c0.54-1.85,1.33-3.54,2.36-5.09c1.03-1.55,2.25-2.89,3.67-4.03
			c1.41-1.14,3.03-2.02,4.85-2.65c1.82-0.62,3.79-0.94,5.91-0.94c2.77,0,5.26,0.54,7.46,1.63c2.2,1.09,4.07,2.61,5.62,4.56
			c1.55,1.96,2.73,4.26,3.54,6.93c0.82,2.66,1.22,5.57,1.22,8.72c0,2.93-0.4,5.73-1.18,8.39c-0.79,2.66-1.93,5-3.42,7.01
			c-1.5,2.01-3.35,3.6-5.58,4.77c-2.23,1.17-4.78,1.75-7.66,1.75c-4.45,0-8.12-1.15-11-3.46c-2.88-2.31-4.81-5.36-5.79-9.17h-0.16
			v26.08H215.33z M241.28,275.43c2.04-1.22,3.71-2.8,5.01-4.73c1.3-1.93,2.27-4.1,2.89-6.52c0.62-2.42,0.94-4.85,0.94-7.29
			c0-2.71-0.34-5.28-1.02-7.7c-0.68-2.42-1.68-4.56-3.01-6.44c-1.33-1.87-3.01-3.35-5.05-4.44c-2.04-1.09-4.41-1.63-7.13-1.63
			c-2.66,0-5.05,0.54-7.17,1.63c-2.12,1.09-3.9,2.55-5.34,4.4c-1.44,1.85-2.54,3.99-3.3,6.44c-0.76,2.44-1.14,5.03-1.14,7.74
			c0,6.57,1.55,11.61,4.64,15.12c3.1,3.5,7.2,5.26,12.3,5.26C236.79,277.27,239.24,276.66,241.28,275.43z"/>
		<path d="M256.56,277.92v-41.88h1.63v10.35h0.16c0.38-1.57,0.98-3.06,1.79-4.44c0.81-1.39,1.9-2.59,3.26-3.63
			c1.36-1.03,2.97-1.85,4.85-2.44c1.87-0.6,4.06-0.87,6.56-0.82v1.63c-2.88-0.16-5.36,0.23-7.46,1.18
			c-2.09,0.95-3.82,2.26-5.17,3.91c-1.36,1.66-2.36,3.57-3.02,5.74c-0.65,2.17-0.98,4.4-0.98,6.68v23.71H256.56z"/>
		<path d="M275.34,265.17c0.62,2.42,1.59,4.52,2.89,6.31c1.3,1.79,2.99,3.21,5.05,4.24c2.06,1.03,4.59,1.55,7.58,1.55
			c4.4,0,8.05-1.15,10.96-3.46c2.91-2.31,4.71-5.77,5.42-10.39h1.63c-0.6,4.89-2.53,8.68-5.79,11.37s-7.28,4.03-12.06,4.03
			c-3.26,0.05-6.04-0.46-8.35-1.55c-2.31-1.09-4.2-2.62-5.66-4.6c-1.47-1.98-2.55-4.32-3.26-7.01c-0.71-2.69-1.06-5.58-1.06-8.68
			c0-3.48,0.52-6.57,1.55-9.29c1.03-2.72,2.39-5.01,4.07-6.88c1.68-1.87,3.64-3.3,5.87-4.28c2.23-0.98,4.51-1.47,6.85-1.47
			c3.26,0,6.07,0.63,8.43,1.87c2.36,1.25,4.29,2.91,5.78,4.97c1.49,2.07,2.58,4.43,3.26,7.09c0.68,2.66,0.96,5.43,0.86,8.31h-35.04
			C274.37,260.13,274.71,262.75,275.34,265.17z M306.67,248.38c-0.71-2.31-1.75-4.33-3.14-6.07c-1.39-1.74-3.11-3.11-5.17-4.11
			c-2.06-1-4.45-1.51-7.17-1.51c-2.28,0-4.41,0.44-6.4,1.3c-1.98,0.87-3.72,2.13-5.21,3.79c-1.5,1.66-2.7,3.65-3.63,5.99
			c-0.92,2.34-1.47,4.97-1.63,7.9h33.41C307.73,253.12,307.37,250.69,306.67,248.38z"/>
		<path d="M339.67,243.04c-0.65-1.47-1.58-2.67-2.77-3.63c-1.2-0.95-2.62-1.64-4.28-2.08c-1.66-0.43-3.49-0.65-5.5-0.65
			c-2.93,0-5.24,0.4-6.93,1.18c-1.68,0.79-2.93,1.68-3.75,2.69c-0.81,1.01-1.33,2-1.55,2.97c-0.22,0.98-0.33,1.66-0.33,2.04
			c0,2.06,0.42,3.65,1.26,4.77c0.84,1.11,1.97,1.97,3.38,2.57c1.47,0.6,3.06,1.11,4.77,1.55c1.71,0.44,3.71,0.95,5.99,1.55
			c1.63,0.44,3.25,0.88,4.85,1.35c1.6,0.46,3.04,1.1,4.32,1.91c1.28,0.82,2.31,1.85,3.1,3.1c0.79,1.25,1.18,2.88,1.18,4.89
			c0,2.12-0.45,3.91-1.35,5.38c-0.9,1.47-2.07,2.66-3.5,3.59c-1.44,0.92-3.07,1.59-4.89,2c-1.82,0.41-3.63,0.61-5.42,0.61
			c-5.6,0-9.82-1.22-12.67-3.67c-2.85-2.44-4.28-6.3-4.28-11.57h1.63c0,4.73,1.32,8.19,3.95,10.39c2.63,2.2,6.42,3.3,11.37,3.3
			c1.52,0,3.08-0.18,4.69-0.53c1.6-0.35,3.06-0.92,4.36-1.71c1.3-0.79,2.38-1.81,3.22-3.06c0.84-1.25,1.26-2.77,1.26-4.56
			c0-1.85-0.42-3.34-1.26-4.48c-0.84-1.14-1.93-2.08-3.26-2.81c-1.33-0.73-2.87-1.32-4.6-1.75c-1.74-0.43-3.5-0.87-5.3-1.3
			c-2.01-0.49-3.78-0.95-5.3-1.39c-1.52-0.43-2.88-0.92-4.07-1.47c-1.74-0.76-3.01-1.82-3.83-3.18c-0.82-1.36-1.22-3.18-1.22-5.46
			c0-1.14,0.24-2.34,0.73-3.59c0.49-1.25,1.3-2.39,2.44-3.42c1.14-1.03,2.61-1.87,4.4-2.53c1.79-0.65,3.99-0.98,6.6-0.98
			c4.67,0,8.37,1.06,11.08,3.18c2.72,2.12,4.07,5.51,4.07,10.19h-1.63C340.65,246.3,340.32,244.51,339.67,243.04z"/>
		<path d="M374.87,243.04c-0.65-1.47-1.58-2.67-2.77-3.63c-1.2-0.95-2.62-1.64-4.28-2.08c-1.66-0.43-3.49-0.65-5.5-0.65
			c-2.93,0-5.24,0.4-6.93,1.18c-1.68,0.79-2.93,1.68-3.75,2.69c-0.81,1.01-1.33,2-1.55,2.97c-0.22,0.98-0.33,1.66-0.33,2.04
			c0,2.06,0.42,3.65,1.26,4.77c0.84,1.11,1.97,1.97,3.38,2.57c1.47,0.6,3.06,1.11,4.77,1.55c1.71,0.44,3.71,0.95,5.99,1.55
			c1.63,0.44,3.25,0.88,4.85,1.35c1.6,0.46,3.04,1.1,4.32,1.91c1.28,0.82,2.31,1.85,3.1,3.1c0.79,1.25,1.18,2.88,1.18,4.89
			c0,2.12-0.45,3.91-1.35,5.38c-0.9,1.47-2.07,2.66-3.5,3.59c-1.44,0.92-3.07,1.59-4.89,2c-1.82,0.41-3.63,0.61-5.42,0.61
			c-5.6,0-9.82-1.22-12.67-3.67c-2.85-2.44-4.28-6.3-4.28-11.57h1.63c0,4.73,1.32,8.19,3.95,10.39c2.63,2.2,6.42,3.3,11.37,3.3
			c1.52,0,3.08-0.18,4.69-0.53c1.6-0.35,3.06-0.92,4.36-1.71c1.3-0.79,2.38-1.81,3.22-3.06c0.84-1.25,1.26-2.77,1.26-4.56
			c0-1.85-0.42-3.34-1.26-4.48c-0.84-1.14-1.93-2.08-3.26-2.81c-1.33-0.73-2.87-1.32-4.6-1.75c-1.74-0.43-3.5-0.87-5.3-1.3
			c-2.01-0.49-3.78-0.95-5.3-1.39c-1.52-0.43-2.88-0.92-4.07-1.47c-1.74-0.76-3.01-1.82-3.83-3.18c-0.82-1.36-1.22-3.18-1.22-5.46
			c0-1.14,0.24-2.34,0.73-3.59c0.49-1.25,1.3-2.39,2.44-3.42c1.14-1.03,2.61-1.87,4.4-2.53c1.79-0.65,3.99-0.98,6.6-0.98
			c4.67,0,8.37,1.06,11.08,3.18c2.72,2.12,4.07,5.51,4.07,10.19h-1.63C375.85,246.3,375.52,244.51,374.87,243.04z"/>
	</g>
</g>
<polygon class="st1" points="133.38,277.92 372.26,516.79 518.93,516.79 518.93,354.05 518.93,371.31 518.93,383.21 374.29,238.57 
	368.26,236.69 361.53,235.98 356.44,236.69 350.8,240.35 348.98,244.26 348.89,247.71 349.35,249.35 339.15,239.15 333.62,236.69 
	325.35,235.98 320.07,236.69 315.71,240.17 313.62,244.35 313.62,246.89 315.62,251.44 316.26,252.26 317.72,253.9 320.26,254.89 
	315.56,252.17 314.62,251.62 314.26,250.97 313.53,249.66 303.97,240.09 299.46,236.93 291.02,235.98 284.44,237.07 279.89,240.35 
	274.8,235.26 271.53,235.89 262.26,240.17 258.38,236.29 257.07,236.69 257.26,249.8 257.17,251.26 245.57,239.67 239.98,236.69 
	232.35,236.04 225.07,238.26 221.8,241.07 217.11,236.38 215.71,236.04 215.62,238.35 215.71,242.26 209.43,235.97 206.71,237.98 
	199.44,247.62 171.85,220.03 134.07,220.44 "/>
</svg>
