<?xml version="1.0" encoding="utf-8"?>
<!-- Generator: Adobe Illustrator 25.2.1, SVG Export Plug-In . SVG Version: 6.00 Build 0)  -->
<svg version="1.1" id="Layer_1" xmlns="http://www.w3.org/2000/svg" xmlns:xlink="http://www.w3.org/1999/xlink" x="0px" y="0px"
	 viewBox="0 0 288 288" style="enable-background:new 0 0 288 288;" xml:space="preserve">
<style type="text/css">
	.st0{opacity:0.05;}
	.st1{opacity:0.1;}
	.st2{fill:#FFFFFF;}
</style>
<g>
	<path class="st0" d="M259.62,206.67c-13.34-21.19-41.68-48.01-63.59-54.72c-17.63-5.41-31.81,0.14-26.96,17.66
		c0.07,0.26,0.16,0.52,0.24,0.78c-3.65-5.97-8.08-12.14-13.05-17.88c-0.23-0.27-0.34-0.62-0.31-0.98c0.21-1.91,0.44-3.83,0.69-5.73
		c0.56-4.3,1.22-8.59,2.37-12.77c1.92-7.01,5.21-13.7,6.85-20.73c0.22-0.94,1.37-1.3,2.09-0.66c1.86,1.67,3.77,3.15,4.71,4.86
		c0.12,0.22,0.3,0.41,0.53,0.53c15.82,8.13,28.84,24.73,46.52,29.76c1.2,0.34,2.11-1.1,1.32-2.06c-1.53-1.86-3.5-3.43-5.1-5.27
		c-1.69-1.94-2.97-4.2-4.51-6.27c-4.34-5.84-10.56-9.98-16.79-13.74c-2.96-1.79-5.96-3.52-8.98-5.19
		c-5.39-2.98-10.89-5.78-16.47-8.4c-0.35-0.16-0.89-0.41-1.49-0.64c-0.51-0.19-0.84-0.66-0.85-1.2
		c-0.17-11.28-6.81-22.26-16.56-27.91c0.04,0.05,0.07,0.1,0.11,0.16c-1.29-1.59-4.67-2.92-5.43-3.21c-0.11-0.04-0.2-0.09-0.29-0.16
		l-1.55-1.13c-0.29-0.33-2.97,1.18-3.41,1.25c-1.07,0.17-2.01,0.58-2.63,1.32c-0.43,0.51-0.32,1.31,0.19,1.74
		c7.85,6.75,16.02,10.05,21.67,21.04c0.21,0.41,0.18,0.91-0.07,1.29c-5.49,8.45-8.43,9.2-18.17,14.35c-1.74,0.92-4.72,2.1-6.62,2.63
		c-12.13,3.41-13.07,6.7,4.07,1.47c2.7-0.82,5.32-1.91,7.8-3.26c2.87-1.56,9.37-4.67,13.82-9.49c0.76-0.83,2.16-0.29,2.2,0.84l0,0
		c0.33,8.63-2.71,17-5.63,25.13c-1.73,4.81-3.44,9.65-4.82,14.57c-0.26,0.94-1.43,1.26-2.13,0.58
		c-9.12-8.82-19.48-15.61-29.92-17.28c-16.41-2.63-31.73,5.35-30.65,22.41c0.46,7.32,4.04,14.75,9.41,21.71
		c0.49,0.63,0.3,1.54-0.4,1.92l-7.06,3.81c-2.78,1.5-5.57,3-8.48,4.22c-3.57,1.5-7.76,3-9.54,6.25c-0.37,0.67,0,1.52,0.72,1.78
		c4.36,1.56,9.33,1.09,13.67-0.61c4.76-1.86,8.87-5.09,12.63-8.56c0.8-0.74,1.58-1.49,2.35-2.26c0.51-0.5,1.32-0.5,1.81,0.02
		c9.1,9.38,21,17.4,31.94,22.34c0.3,0.13,0.59,0.26,0.88,0.39c-0.78,2.6-0.99,5.61-0.5,9.05c2.86,20.16,28.98,44.73,51.25,54.27
		c24.03,10.29,43.64,1.95,33.16-24.83c-6.63-16.95-25.39-34.19-41.92-43.78c-0.42-0.24-0.65-0.69-0.63-1.17
		c0.07-1.53-0.05-3.19-0.37-4.99c-0.23-1.31,1.41-2.09,2.24-1.05c12.54,15.58,32.26,32.01,49.1,40.02
		C259.06,243.16,277.99,235.85,259.62,206.67z M150.53,76.47c0.01,0.02,0.03,0.05,0.05,0.08c-0.04-0.06-0.08-0.12-0.13-0.18
		C150.48,76.4,150.51,76.43,150.53,76.47z"/>
	<path class="st1" d="M115.71,199.52c0.18-0.94,0.17-1.91-0.04-2.84c0.01,0.06-2.43,1.52-2.66,1.69c-0.83,0.61-1.62,1.27-2.39,1.95
		c-0.97,0.85-1.96,1.72-2.7,2.78c-1.63,2.31-2.08,5.66-2.59,8.36c-0.48,2.53-0.77,5.09-0.87,7.66c-0.05,1.15,0.04,2.5,0.98,3.16
		c1.95-0.65,3.4-2.27,4.76-3.82c2.63-3.01,5.35-6.19,6.24-10.09c0.6-2.6,0.34-5.31,0.07-7.97
		C116.46,199.93,116.12,199.29,115.71,199.52z"/>
</g>
<path class="st2" d="M192.9,121.69c-7.11-5.53-26.88-18.67-33.68-19.52l-5.8-5.25c-0.34-2.59-2.98-10.98-5.24-16.58
	c-2.27-5.61-10.52-16-12.55-17.82s-4.47-1.81-7.1,0c0,0-1.22,0.33-1.22,2.64c0,1.39,4.02,6.1,7.67,10.57
	c0.46,0.57,0.92,1.13,1.36,1.68c0.86,1.43,1.72,2.92,2.53,4.42c2.04,3.79,4.06,8.79,5.59,13.2c-1.28,2.03-7.7,8.66-11.05,11.71
	c-1.71,1.55-6.25,4.92-10.4,7.93c-1.28-1.03-2.71-1.92-4.33-2.66c-12.8-5.84-31.27,0.58-41.27,14.35s-7.73,29.65,5.06,35.5
	c12.8,5.84,31.27-0.58,41.27-14.35c8.05-11.09,8.15-23.55,1.19-31.03c4.04-2.84,8.98-6.36,10.86-7.91c3.22-2.65,9.46-8.4,10.13-9.02
	c0.36,1.19,0.65,2.26,0.87,3.14c0.1,0.44,0.2,0.92,0.31,1.42c0.45,2.55,1.03,5.5,1.04,9.93c-0.66,7.29-6.87,25.1-7.62,28.19
	c-0.81,3.3-0.61,5.61-0.61,5.61s-13.39,9.9-17.86,12.21c-1.58,0.82-4.56,2.18-7.73,3.59c-4.98,0.81-21.05,6.06-24.74,8.06
	c-4.26,2.31-21.92,13.36-21.1,14.68c0.73,1.19,22.32-2.8,29.02-7.76c4.56-3.37,11.86-8.69,15.73-12.03
	c2.29-0.92,4.64-1.88,6.66-2.74c-5.15,4.61-9.99,9.76-12.45,14.33c-6.5,12.04-9.13,38.11-6.9,39.1c1.47,0.65,8.96-7.9,15.35-16.64
	c0.97,14.64,12.79,26.2,27.24,26.2c15.09,0,27.32-12.6,27.32-28.14c0-7.22-2.64-13.8-6.98-18.78c10.78,9.78,26.65,13.04,37.78,7.12
	c12.62-6.72,14.36-22.71,3.9-35.71c-9.68-12.03-26.41-17.28-38.86-12.68l-14.21-13.44c0,0,2.03-6.76,2.23-10.4
	c0.2-3.63-0.4-14.2-0.4-14.2l3.32,2.97c2.07,3.83,17.84,21.18,24.94,26.41c7.71,5.7,35.71,20.02,37.34,18.48
	C221.1,146.94,201.21,128.15,192.9,121.69z M141.97,170.6c-4.1,0.18-7.97,1.28-11.41,3.12c3.33-7.69,6.61-15.89,7.82-20.15
	c0.94-0.6,1.51-0.97,1.51-0.97C139.5,158.64,140.89,166,141.97,170.6z M162.81,140.25c-12.15,6.88-13.71,22.59-3.39,35.42
	c0.45,0.55,0.91,1.09,1.39,1.61c-3.78-3.32-8.45-5.59-13.59-6.39c-0.88-4.25-2.07-11.1-2.07-17.29c0-9.9,5.68-25.74,5.68-25.74
	L162.81,140.25z"/>
</svg>
