<?xml version="1.0" encoding="utf-8"?>
<!-- Generator: Adobe Illustrator 25.2.1, SVG Export Plug-In . SVG Version: 6.00 Build 0)  -->
<svg version="1.1" id="Layer_1" xmlns="http://www.w3.org/2000/svg" xmlns:xlink="http://www.w3.org/1999/xlink" x="0px" y="0px"
	 viewBox="0 0 512 512" style="enable-background:new 0 0 512 512;" xml:space="preserve">
<style type="text/css">
	.st0{fill:url(#SVGID_1_);}
	.st1{opacity:0.06;}
	.st2{fill-rule:evenodd;clip-rule:evenodd;fill:#1B1F23;}
	.st3{fill:#231F20;}
	.st4{fill:url(#SVGID_2_);}
	.st5{fill:url(#SVGID_3_);}
	.st6{fill:url(#SVGID_4_);}
	.st7{fill-rule:evenodd;clip-rule:evenodd;}
</style>
<linearGradient id="SVGID_1_" gradientUnits="userSpaceOnUse" x1="0" y1="256" x2="512" y2="256">
	<stop  offset="0" style="stop-color:#EAFFFE"/>
	<stop  offset="1" style="stop-color:#FFCAF2"/>
</linearGradient>
<!--rect class="st0" width="512" height="512"/-->
<polygon class="st1" points="94.67,413.56 204.81,523.7 526.8,523.7 526.8,446.8 526.8,158.07 526.8,173.35 433.82,80.37 
	350.73,86.32 344.98,125.54 335.33,173.27 515.24,352.3 515.29,370.56 246.94,102.21 187.17,102.21 187.17,113.06 177.87,103.75 
	172.62,113.06 137.3,113.06 128,103.75 94.67,109.35 87.44,144.32 164.04,220.92 145.71,235.9 137.3,274.33 246.07,383.1 
	246.07,402.09 366.65,523.64 350.56,514.92 171.83,336.2 128.99,333.35 98.66,337.11 87.44,394.44 "/>
<path class="st2" d="M135.36,322.89c-30.09,0-54.47,24.37-54.47,54.47c0,24.1,15.59,44.46,37.24,51.68
	c2.72,0.48,3.74-1.16,3.74-2.59c0-1.29-0.07-5.58-0.07-10.14c-13.69,2.52-17.23-3.34-18.32-6.4c-0.61-1.57-3.27-6.4-5.58-7.69
	c-1.91-1.02-4.63-3.54-0.07-3.61c4.29-0.07,7.35,3.95,8.37,5.58c4.9,8.24,12.73,5.92,15.86,4.49c0.48-3.54,1.91-5.92,3.47-7.29
	c-12.12-1.36-24.78-6.06-24.78-26.89c0-5.92,2.11-10.83,5.58-14.64c-0.54-1.36-2.45-6.94,0.54-14.43c0,0,4.56-1.43,14.98,5.58
	c4.36-1.23,8.99-1.84,13.62-1.84s9.26,0.61,13.62,1.84c10.42-7.08,14.98-5.58,14.98-5.58c3,7.49,1.09,13.07,0.54,14.43
	c3.47,3.81,5.58,8.65,5.58,14.64c0,20.9-12.73,25.53-24.85,26.89c1.97,1.7,3.68,4.97,3.68,10.08c0,7.29-0.07,13.14-0.07,14.98
	c0,1.43,1.02,3.13,3.74,2.59c21.52-7.22,37.11-27.64,37.11-51.68C189.83,347.27,165.46,322.89,135.36,322.89z"/>
<path class="st3" d="M137.3,154.7h20.78v-10.39h20.78v-41.55H137.3V154.7z M158.08,113.15h10.39v20.78h-10.39V113.15z
	 M187.17,102.76v41.55h20.78v-31.17h10.39v31.17h10.39v-31.17h10.39v31.17h10.39v-41.55H187.17z M87.44,144.32h20.78v-31.17h10.39
	v31.17h10.39v-41.55H87.44V144.32z"/>
<g>
	<g>
		<path d="M276.04,400.78v1.3h-31.16v-46.54h30.9v1.3h-29.6v20.34h27.84v1.3h-27.84v22.29H276.04z"/>
		<path d="M305.68,368.58l-12.26,16.17l13.43,17.34h-1.63l-12.65-16.36L280,402.09h-1.57l13.36-17.34l-12.19-16.17h1.7l11.28,15.19
			l11.54-15.19H305.68z"/>
		<path d="M310.44,413.56v-44.98h1.3v9.39h0.13c0.43-1.48,1.06-2.84,1.89-4.07c0.83-1.24,1.8-2.31,2.93-3.23
			c1.13-0.91,2.42-1.62,3.88-2.12c1.46-0.5,3.03-0.75,4.73-0.75c2.22,0,4.21,0.44,5.96,1.3c1.76,0.87,3.26,2.09,4.5,3.65
			c1.24,1.56,2.18,3.41,2.84,5.54c0.65,2.13,0.98,4.46,0.98,6.97c0,2.35-0.32,4.59-0.95,6.71c-0.63,2.13-1.54,4-2.74,5.61
			c-1.2,1.61-2.68,2.88-4.47,3.81c-1.78,0.93-3.82,1.4-6.13,1.4c-3.56,0-6.5-0.92-8.8-2.77c-2.3-1.85-3.85-4.29-4.63-7.33h-0.13
			v20.86H310.44z M331.2,400.1c1.63-0.98,2.97-2.24,4.01-3.78c1.04-1.54,1.81-3.28,2.31-5.21c0.5-1.93,0.75-3.88,0.75-5.83
			c0-2.17-0.27-4.23-0.81-6.16c-0.54-1.93-1.35-3.65-2.41-5.15c-1.07-1.5-2.41-2.68-4.04-3.55c-1.63-0.87-3.53-1.3-5.7-1.3
			c-2.13,0-4.04,0.44-5.74,1.3s-3.12,2.04-4.27,3.52c-1.15,1.48-2.03,3.19-2.64,5.15c-0.61,1.96-0.91,4.02-0.91,6.19
			c0,5.26,1.24,9.29,3.72,12.09c2.48,2.8,5.76,4.21,9.84,4.21C327.61,401.56,329.57,401.08,331.2,400.1z"/>
		<path d="M343.43,402.09v-33.51h1.3v8.28h0.13c0.3-1.26,0.78-2.44,1.43-3.55c0.65-1.11,1.52-2.08,2.61-2.9
			c1.09-0.83,2.38-1.48,3.88-1.96c1.5-0.48,3.25-0.69,5.25-0.65v1.3c-2.3-0.13-4.29,0.19-5.96,0.95c-1.67,0.76-3.05,1.8-4.14,3.13
			c-1.09,1.33-1.89,2.86-2.41,4.6s-0.78,3.52-0.78,5.35v18.97H343.43z"/>
		<path d="M358.45,391.88c0.5,1.93,1.27,3.62,2.31,5.05c1.04,1.43,2.39,2.57,4.04,3.39c1.65,0.83,3.67,1.24,6.06,1.24
			c3.52,0,6.44-0.92,8.77-2.77c2.33-1.85,3.77-4.62,4.34-8.31h1.3c-0.48,3.91-2.02,6.94-4.63,9.09s-5.82,3.23-9.65,3.23
			c-2.61,0.04-4.84-0.37-6.68-1.24c-1.85-0.87-3.36-2.1-4.53-3.68c-1.17-1.59-2.04-3.46-2.61-5.61c-0.57-2.15-0.85-4.47-0.85-6.94
			c0-2.78,0.41-5.26,1.24-7.43c0.83-2.17,1.91-4.01,3.26-5.51c1.35-1.5,2.91-2.64,4.69-3.42c1.78-0.78,3.61-1.17,5.48-1.17
			c2.61,0,4.86,0.5,6.75,1.5c1.89,1,3.43,2.33,4.63,3.98c1.2,1.65,2.06,3.54,2.61,5.67c0.54,2.13,0.77,4.35,0.68,6.65h-28.03
			C357.68,387.85,357.95,389.95,358.45,391.88z M383.52,378.46c-0.57-1.85-1.4-3.47-2.51-4.86c-1.11-1.39-2.49-2.49-4.14-3.29
			c-1.65-0.8-3.56-1.21-5.74-1.21c-1.83,0-3.53,0.35-5.12,1.04c-1.59,0.7-2.98,1.71-4.17,3.03c-1.2,1.33-2.16,2.92-2.9,4.79
			c-0.74,1.87-1.17,3.98-1.3,6.32h26.73C384.36,382.25,384.08,380.3,383.52,378.46z"/>
		<path d="M409.92,374.18c-0.52-1.17-1.26-2.14-2.22-2.9c-0.96-0.76-2.1-1.31-3.42-1.66c-1.33-0.35-2.79-0.52-4.4-0.52
			c-2.35,0-4.19,0.32-5.54,0.95c-1.35,0.63-2.35,1.35-3,2.15c-0.65,0.8-1.07,1.6-1.24,2.38c-0.17,0.78-0.26,1.33-0.26,1.63
			c0,1.65,0.34,2.92,1.01,3.81s1.58,1.58,2.71,2.05c1.17,0.48,2.44,0.89,3.81,1.24c1.37,0.35,2.97,0.76,4.79,1.24
			c1.3,0.35,2.6,0.71,3.88,1.08c1.28,0.37,2.43,0.88,3.46,1.53c1.02,0.65,1.85,1.48,2.48,2.48c0.63,1,0.95,2.3,0.95,3.91
			c0,1.7-0.36,3.13-1.08,4.3c-0.72,1.17-1.65,2.13-2.8,2.87c-1.15,0.74-2.46,1.27-3.91,1.6c-1.46,0.33-2.9,0.49-4.34,0.49
			c-4.48,0-7.85-0.98-10.14-2.93c-2.28-1.96-3.42-5.04-3.42-9.26h1.3c0,3.78,1.05,6.55,3.16,8.31c2.11,1.76,5.14,2.64,9.09,2.64
			c1.22,0,2.47-0.14,3.75-0.42c1.28-0.28,2.44-0.74,3.49-1.37c1.04-0.63,1.9-1.44,2.58-2.44c0.67-1,1.01-2.22,1.01-3.65
			c0-1.48-0.34-2.67-1.01-3.59c-0.67-0.91-1.54-1.66-2.61-2.25c-1.07-0.59-2.29-1.05-3.68-1.4c-1.39-0.35-2.8-0.69-4.24-1.04
			c-1.61-0.39-3.02-0.76-4.24-1.11c-1.22-0.35-2.3-0.74-3.26-1.17c-1.39-0.61-2.41-1.46-3.06-2.54c-0.65-1.09-0.98-2.54-0.98-4.37
			c0-0.91,0.2-1.87,0.59-2.87c0.39-1,1.04-1.91,1.96-2.74c0.91-0.83,2.09-1.5,3.52-2.02c1.43-0.52,3.19-0.78,5.28-0.78
			c3.74,0,6.69,0.85,8.87,2.54c2.17,1.69,3.26,4.41,3.26,8.15h-1.3C410.7,376.79,410.44,375.36,409.92,374.18z"/>
		<path d="M438.08,374.18c-0.52-1.17-1.26-2.14-2.22-2.9c-0.96-0.76-2.1-1.31-3.42-1.66c-1.33-0.35-2.79-0.52-4.4-0.52
			c-2.35,0-4.19,0.32-5.54,0.95c-1.35,0.63-2.35,1.35-3,2.15c-0.65,0.8-1.07,1.6-1.24,2.38c-0.17,0.78-0.26,1.33-0.26,1.63
			c0,1.65,0.34,2.92,1.01,3.81s1.58,1.58,2.71,2.05c1.17,0.48,2.44,0.89,3.81,1.24c1.37,0.35,2.97,0.76,4.79,1.24
			c1.3,0.35,2.6,0.71,3.88,1.08c1.28,0.37,2.43,0.88,3.46,1.53c1.02,0.65,1.85,1.48,2.48,2.48c0.63,1,0.95,2.3,0.95,3.91
			c0,1.7-0.36,3.13-1.08,4.3c-0.72,1.17-1.65,2.13-2.8,2.87c-1.15,0.74-2.46,1.27-3.91,1.6c-1.46,0.33-2.9,0.49-4.34,0.49
			c-4.48,0-7.85-0.98-10.14-2.93c-2.28-1.96-3.42-5.04-3.42-9.26h1.3c0,3.78,1.05,6.55,3.16,8.31c2.11,1.76,5.14,2.64,9.09,2.64
			c1.22,0,2.47-0.14,3.75-0.42c1.28-0.28,2.44-0.74,3.49-1.37c1.04-0.63,1.9-1.44,2.58-2.44c0.67-1,1.01-2.22,1.01-3.65
			c0-1.48-0.34-2.67-1.01-3.59c-0.67-0.91-1.54-1.66-2.61-2.25c-1.07-0.59-2.29-1.05-3.68-1.4c-1.39-0.35-2.8-0.69-4.24-1.04
			c-1.61-0.39-3.02-0.76-4.24-1.11c-1.22-0.35-2.3-0.74-3.26-1.17c-1.39-0.61-2.41-1.46-3.06-2.54c-0.65-1.09-0.98-2.54-0.98-4.37
			c0-0.91,0.2-1.87,0.59-2.87c0.39-1,1.04-1.91,1.96-2.74c0.91-0.83,2.09-1.5,3.52-2.02c1.43-0.52,3.19-0.78,5.28-0.78
			c3.74,0,6.69,0.85,8.87,2.54c2.17,1.69,3.26,4.41,3.26,8.15h-1.3C438.86,376.79,438.6,375.36,438.08,374.18z"/>
	</g>
</g>
<g>
	<linearGradient id="SVGID_2_" gradientUnits="userSpaceOnUse" x1="371.3687" y1="120.1182" x2="392.0665" y2="103.6882">
		<stop  offset="0" style="stop-color:#000000"/>
		<stop  offset="1" style="stop-color:#000000"/>
	</linearGradient>
	<path class="st4" d="M394.12,112.77c0-5.17-3.64-8.03-10.05-8.03h-11.79v16.64h9.93C389.89,121.38,394.12,118.29,394.12,112.77z"/>
	<linearGradient id="SVGID_3_" gradientUnits="userSpaceOnUse" x1="371.4264" y1="145.1239" x2="394.3563" y2="126.9221">
		<stop  offset="0" style="stop-color:#000000"/>
		<stop  offset="1" style="stop-color:#000000"/>
	</linearGradient>
	<path class="st5" d="M383.99,127.98h-11.71v18.34h12.22c7.99,0,12.22-3.2,12.22-9.23C396.73,131.07,392.38,127.98,383.99,127.98z"
		/>
	<linearGradient id="SVGID_4_" gradientUnits="userSpaceOnUse" x1="330.9823" y1="167.2145" x2="445.8609" y2="76.0238">
		<stop  offset="0" style="stop-color:#000000"/>
		<stop  offset="1" style="stop-color:#000000"/>
	</linearGradient>
	<path class="st6" d="M437.02,109.78c-2.23-7.23-2.54-16.09-2.3-22.93c0.25-7.12-5.3-13.69-12.8-13.69h-76.86
		c-7.5,0-13.05,6.57-12.8,13.69c0.24,6.84-0.07,15.71-2.3,22.93c-2.24,7.25-6.02,11.83-12.2,12.42v6.68
		c6.18,0.59,9.96,5.17,12.2,12.42c2.23,7.23,2.54,16.09,2.3,22.93c-0.25,7.12,5.3,13.69,12.8,13.69h76.86
		c7.5,0,13.05-6.57,12.8-13.69c-0.24-6.84,0.07-15.71,2.3-22.93c2.24-7.25,6.01-11.83,12.19-12.42v-6.68
		C443.03,121.61,439.26,117.03,437.02,109.78z M386.33,153.39h-22.9V97.67h22.79c10.13,0,16.77,5.48,16.77,13.9
		c0,5.91-4.47,11.2-10.17,12.12V124c7.75,0.85,12.98,6.22,12.98,13.63C405.79,147.44,398.47,153.39,386.33,153.39z"/>
</g>
<g>
	<g>
		<path d="M254.63,329.18c-0.79,0-1.57-0.21-2.26-0.61l-7.2-4.27c-1.08-0.6-0.55-0.81-0.2-0.94c1.43-0.5,1.73-0.62,3.26-1.49
			c0.16-0.09,0.37-0.06,0.54,0.04l5.53,3.28c0.2,0.11,0.48,0.11,0.67,0l21.58-12.46c0.2-0.11,0.33-0.35,0.33-0.58v-24.9
			c0-0.25-0.13-0.47-0.33-0.59l-21.57-12.45c-0.2-0.12-0.46-0.12-0.66,0l-21.57,12.45c-0.21,0.12-0.34,0.35-0.34,0.59v24.9
			c0,0.24,0.13,0.46,0.33,0.58l5.91,3.41c3.21,1.6,5.17-0.29,5.17-2.19v-24.58c0-0.35,0.28-0.62,0.63-0.62h2.73
			c0.34,0,0.62,0.27,0.62,0.62v24.59c0,4.28-2.33,6.74-6.39,6.74c-1.25,0-2.23,0-4.98-1.35l-5.66-3.26
			c-1.4-0.81-2.26-2.32-2.26-3.94v-24.9c0-1.62,0.86-3.13,2.26-3.93l21.6-12.46c1.37-0.77,3.18-0.77,4.54,0l21.57,12.47
			c1.39,0.8,2.26,2.31,2.26,3.93v24.9c0,1.62-0.87,3.12-2.26,3.93l-21.57,12.46c-0.69,0.4-1.47,0.61-2.27,0.61"/>
		<path d="M261.29,312.02c-9.44,0-11.42-4.33-11.42-7.97c0-0.35,0.28-0.62,0.62-0.62h2.79c0.31,0,0.57,0.22,0.62,0.53
			c0.42,2.84,1.67,4.27,7.38,4.27c4.55,0,6.48-1.03,6.48-3.44c0-1.39-0.55-2.42-7.62-3.11c-5.91-0.58-9.56-1.89-9.56-6.61
			c0-4.35,3.67-6.95,9.83-6.95c6.91,0,10.33,2.4,10.77,7.55c0.02,0.18-0.05,0.35-0.17,0.48c-0.12,0.12-0.29,0.2-0.46,0.2h-2.8
			c-0.29,0-0.55-0.21-0.6-0.49c-0.68-2.99-2.31-3.94-6.74-3.94c-4.96,0-5.54,1.73-5.54,3.03c0,1.57,0.68,2.03,7.38,2.92
			c6.63,0.88,9.78,2.12,9.78,6.78c0,4.7-3.92,7.4-10.76,7.4 M287.55,285.63h0.72c0.59,0,0.71-0.42,0.71-0.66
			c0-0.64-0.44-0.64-0.68-0.64h-0.75L287.55,285.63z M286.67,283.59h1.6c0.55,0,1.63,0,1.63,1.23c0,0.86-0.55,1.04-0.88,1.15
			c0.64,0.04,0.69,0.46,0.77,1.06c0.04,0.37,0.11,1.02,0.24,1.23h-0.99c-0.03-0.22-0.18-1.4-0.18-1.47
			c-0.06-0.26-0.16-0.39-0.49-0.39h-0.82v1.87h-0.9V283.59z M284.74,285.91c0,1.93,1.56,3.5,3.48,3.5c1.93,0,3.49-1.6,3.49-3.5
			c0-1.94-1.58-3.48-3.5-3.48C286.32,282.43,284.73,283.95,284.74,285.91 M292.38,285.92c0,2.29-1.87,4.16-4.16,4.16
			c-2.27,0-4.16-1.85-4.16-4.16c0-2.36,1.93-4.16,4.16-4.16C290.47,281.76,292.38,283.57,292.38,285.92"/>
		<path class="st7" d="M187.8,231.74c0-0.99-0.52-1.91-1.38-2.4l-22.88-13.16c-0.39-0.23-0.82-0.35-1.26-0.36h-0.24
			c-0.44,0.02-0.87,0.14-1.26,0.36l-22.88,13.16c-0.85,0.5-1.38,1.41-1.38,2.4l0.05,35.46c0,0.49,0.25,0.95,0.69,1.19
			c0.42,0.26,0.95,0.26,1.37,0l13.6-7.79c0.86-0.51,1.38-1.41,1.38-2.4v-16.56c0-0.99,0.52-1.9,1.38-2.39l5.79-3.34
			c0.43-0.25,0.9-0.37,1.38-0.37c0.47,0,0.96,0.12,1.37,0.37l5.79,3.33c0.86,0.49,1.38,1.4,1.38,2.39v16.56
			c0,0.98,0.53,1.89,1.39,2.4l13.59,7.78c0.43,0.25,0.96,0.25,1.38,0c0.42-0.24,0.68-0.7,0.68-1.19L187.8,231.74z M295.77,250.2
			c0,0.25-0.13,0.48-0.35,0.6l-7.86,4.53c-0.21,0.12-0.48,0.12-0.69,0l-7.86-4.53c-0.22-0.12-0.35-0.35-0.35-0.6v-9.07
			c0-0.25,0.13-0.48,0.34-0.6l7.85-4.54c0.22-0.12,0.48-0.12,0.7,0l7.86,4.54c0.22,0.12,0.35,0.35,0.35,0.6L295.77,250.2z
			 M297.89,183c-0.43-0.24-0.95-0.23-1.37,0.01c-0.42,0.25-0.68,0.7-0.68,1.19v35.11c0,0.35-0.18,0.66-0.48,0.84
			c-0.3,0.17-0.67,0.17-0.97,0l-5.73-3.3c-0.85-0.49-1.9-0.49-2.76,0L263,230.06c-0.86,0.49-1.38,1.4-1.38,2.39v26.43
			c0,0.99,0.53,1.9,1.38,2.39l22.89,13.22c0.85,0.49,1.91,0.49,2.76,0l22.89-13.22c0.85-0.5,1.38-1.4,1.38-2.39v-65.86
			c0-1-0.55-1.92-1.42-2.41L297.89,183z M374.11,240.89c0.85-0.49,1.37-1.41,1.37-2.39v-6.4c0-0.99-0.52-1.89-1.38-2.39l-22.74-13.2
			c-0.86-0.5-1.91-0.5-2.77,0l-22.88,13.21c-0.86,0.5-1.38,1.4-1.38,2.39v26.41c0,0.99,0.53,1.91,1.39,2.4l22.74,12.96
			c0.84,0.48,1.86,0.49,2.71,0.02l13.75-7.64c0.43-0.24,0.71-0.7,0.71-1.2c0-0.5-0.26-0.96-0.7-1.2l-23.02-13.21
			c-0.43-0.24-0.7-0.7-0.7-1.19v-8.29c0-0.49,0.26-0.95,0.69-1.2l7.16-4.13c0.43-0.25,0.95-0.25,1.38,0l7.17,4.13
			c0.43,0.24,0.69,0.7,0.69,1.19v6.51c0,0.49,0.26,0.95,0.69,1.2c0.43,0.24,0.96,0.24,1.38-0.01L374.11,240.89z"/>
		<path class="st7" d="M349.64,239.65c0.16-0.1,0.37-0.1,0.53,0l4.39,2.53c0.16,0.1,0.26,0.27,0.26,0.46v5.07
			c0,0.19-0.1,0.36-0.26,0.46l-4.39,2.53c-0.16,0.1-0.37,0.1-0.53,0l-4.39-2.53c-0.17-0.1-0.27-0.27-0.27-0.46v-5.07
			c0-0.19,0.1-0.36,0.26-0.46L349.64,239.65z"/>
	</g>
	<path d="M250.27,232.05c0-0.1-0.03-0.19-0.04-0.29c-0.09-0.88-0.57-1.67-1.34-2.11l-7.05-4.05l-15.83-9.11
		c-0.39-0.23-0.82-0.35-1.26-0.36h-0.24c-0.44,0.02-0.87,0.14-1.26,0.36l-15.84,9.11l-7.04,4.05c-0.78,0.45-1.27,1.26-1.35,2.15
		c-0.01,0.09-0.03,0.17-0.03,0.25l0.02,12.46l-0.02,14.12c0,0.1,0.03,0.19,0.04,0.29c0.09,0.88,0.57,1.67,1.34,2.11l7.05,4.05
		l15.83,9.11c0.39,0.23,0.82,0.35,1.26,0.36h0.24c0.44-0.02,0.87-0.14,1.26-0.36l15.84-9.11l7.04-4.05
		c0.78-0.45,1.27-1.26,1.35-2.15c0.01-0.09,0.03-0.17,0.03-0.25l-0.02-12.46L250.27,232.05z"/>
</g>
</svg>
